STARTFONT 2.1
COMMENT  
COMMENT  WARNING:  This bdf file was generated from an X server using
COMMENT  xbdfdump.  The resulting font is subject to the same copyright,
COMMENT  license, and trademark restrictions as the original font.  The
COMMENT  author and distributors of xbdfdump disclaim all liability for
COMMENT  misuse of the program or its output.
COMMENT  
FONT -phaisarn-angsana-bold-r-normal--14-140-75-75-p-75-tis620-0
SIZE 14 75 75
FONTBOUNDINGBOX 34 42 -11 -13
STARTPROPERTIES 27
FOUNDRY "Phaisarn"
FAMILY_NAME "Angsana"
WEIGHT_NAME "bold"
SLANT "r"
SETWIDTH_NAME "normal"
ADD_STYLE_NAME ""
PIXEL_SIZE 14
POINT_SIZE 140
RESOLUTION_X 75
RESOLUTION_Y 75
SPACING "p"
AVERAGE_WIDTH 75
CHARSET_REGISTRY "tis620"
CHARSET_ENCODING "0"
COPYRIGHT "Angsana by Pt-TITech 1997"
RAW_PIXELSIZE 1000
RAW_POINTSIZE 0
RAW_ASCENT 0
RAW_DESCENT 0
RAW_AVERAGE_WIDTH 2994
FACE_NAME "Angsana Bold"
WEIGHT 10
X_HEIGHT 9
QUAD_WIDTH 12
FONT_ASCENT 25
FONT_DESCENT 10
_XMBDFED_INFO "Edited with xmbdfed 4.5."
ENDPROPERTIES
CHARS 195
STARTCHAR space
ENCODING 32
SWIDTH 342 0
DWIDTH 5 0
BBX 0 0 0 0
BITMAP
ENDCHAR
STARTCHAR exclam
ENCODING 33
SWIDTH 411 0
DWIDTH 6 0
BBX 3 13 1 0
BITMAP
E0
E0
E0
E0
E0
40
40
40
40
00
E0
E0
E0
ENDCHAR
STARTCHAR quotedbl
ENCODING 34
SWIDTH 754 0
DWIDTH 11 0
BBX 7 6 2 7
BITMAP
EE
EE
EE
C4
44
44
ENDCHAR
STARTCHAR numbersign
ENCODING 35
SWIDTH 617 0
DWIDTH 9 0
BBX 9 13 0 0
BITMAP
1980
1980
3980
3300
FF80
FF80
3300
6600
FF80
FF80
6600
CC00
CC00
ENDCHAR
STARTCHAR dollar
ENCODING 36
SWIDTH 617 0
DWIDTH 9 0
BBX 8 14 1 -1
BITMAP
38
56
D2
D1
F0
F8
7C
1E
1F
93
93
92
7C
10
ENDCHAR
STARTCHAR percent
ENCODING 37
SWIDTH 1302 0
DWIDTH 19 0
BBX 17 14 1 -1
BITMAP
300C00
480800
CC1000
CC3000
CC2000
484000
30C600
018900
011980
021980
061980
041980
080900
180F00
ENDCHAR
STARTCHAR ampersand
ENCODING 38
SWIDTH 1097 0
DWIDTH 16 0
BBX 15 13 1 0
BITMAP
0700
0DC0
0CC0
1C80
1D80
0E3C
3E18
6710
67A0
E3C0
F1E2
7BFC
3C78
ENDCHAR
STARTCHAR apostrophe
ENCODING 39
SWIDTH 342 0
DWIDTH 5 0
BBX 3 6 1 7
BITMAP
E0
E0
E0
C0
40
40
ENDCHAR
STARTCHAR parenleft
ENCODING 40
SWIDTH 411 0
DWIDTH 6 0
BBX 5 17 1 -4
BITMAP
08
30
20
60
40
C0
C0
C0
C0
C0
C0
C0
40
60
20
10
08
ENDCHAR
STARTCHAR parenright
ENCODING 41
SWIDTH 411 0
DWIDTH 6 0
BBX 6 17 0 -4
BITMAP
C0
20
10
18
08
0C
0C
0C
0C
0C
0C
0C
18
18
10
20
C0
ENDCHAR
STARTCHAR asterisk
ENCODING 42
SWIDTH 617 0
DWIDTH 9 0
BBX 8 7 1 6
BITMAP
18
18
CB
FF
18
66
66
ENDCHAR
STARTCHAR plus
ENCODING 43
SWIDTH 754 0
DWIDTH 11 0
BBX 10 10 0 1
BITMAP
0C00
0C00
0C00
0C00
FFC0
FFC0
0C00
0C00
0C00
0C00
ENDCHAR
STARTCHAR comma
ENCODING 44
SWIDTH 342 0
DWIDTH 5 0
BBX 3 6 1 -3
BITMAP
C0
E0
E0
20
60
80
ENDCHAR
STARTCHAR minus
ENCODING 45
SWIDTH 411 0
DWIDTH 6 0
BBX 5 2 0 3
BITMAP
F8
F8
ENDCHAR
STARTCHAR period
ENCODING 46
SWIDTH 342 0
DWIDTH 5 0
BBX 3 3 1 0
BITMAP
E0
E0
E0
ENDCHAR
STARTCHAR slash
ENCODING 47
SWIDTH 342 0
DWIDTH 5 0
BBX 5 13 0 0
BITMAP
08
18
10
10
10
20
20
20
40
40
40
C0
80
ENDCHAR
STARTCHAR 0
ENCODING 48
SWIDTH 617 0
DWIDTH 9 0
BBX 8 13 1 0
BITMAP
18
24
66
66
E7
E7
E7
E7
E7
E6
66
24
18
ENDCHAR
STARTCHAR 1
ENCODING 49
SWIDTH 617 0
DWIDTH 9 0
BBX 7 13 1 0
BITMAP
18
78
B8
38
38
38
38
38
38
38
38
38
FE
ENDCHAR
STARTCHAR 2
ENCODING 50
SWIDTH 617 0
DWIDTH 9 0
BBX 8 13 1 0
BITMAP
38
7C
9E
8E
0E
0C
0C
18
10
20
21
7E
FE
ENDCHAR
STARTCHAR 3
ENCODING 51
SWIDTH 617 0
DWIDTH 9 0
BBX 8 13 0 0
BITMAP
1C
7E
4E
06
06
0E
3F
07
07
03
42
E6
78
ENDCHAR
STARTCHAR 4
ENCODING 52
SWIDTH 617 0
DWIDTH 9 0
BBX 8 13 1 0
BITMAP
06
06
0E
1E
2E
2E
4E
8E
FF
FF
0E
0E
0E
ENDCHAR
STARTCHAR 5
ENCODING 53
SWIDTH 617 0
DWIDTH 9 0
BBX 8 13 1 0
BITMAP
3F
7E
40
60
FC
FE
1F
07
03
03
42
E4
78
ENDCHAR
STARTCHAR 6
ENCODING 54
SWIDTH 617 0
DWIDTH 9 0
BBX 8 13 1 0
BITMAP
07
18
30
70
60
FE
E7
E7
E7
E7
66
36
18
ENDCHAR
STARTCHAR 7
ENCODING 55
SWIDTH 617 0
DWIDTH 9 0
BBX 8 13 1 0
BITMAP
7F
FF
82
86
06
04
04
0C
08
08
18
10
10
ENDCHAR
STARTCHAR 8
ENCODING 56
SWIDTH 617 0
DWIDTH 9 0
BBX 8 13 1 0
BITMAP
3C
66
C3
E3
F3
7C
3E
5F
C7
C3
C3
46
3C
ENDCHAR
STARTCHAR 9
ENCODING 57
SWIDTH 617 0
DWIDTH 9 0
BBX 8 13 1 0
BITMAP
18
6C
66
E7
E7
E7
E7
7F
06
0E
0C
18
E0
ENDCHAR
STARTCHAR colon
ENCODING 58
SWIDTH 411 0
DWIDTH 6 0
BBX 3 9 2 0
BITMAP
E0
E0
E0
00
00
00
E0
E0
E0
ENDCHAR
STARTCHAR semicolon
ENCODING 59
SWIDTH 411 0
DWIDTH 6 0
BBX 4 12 1 -3
BITMAP
70
70
70
00
00
00
60
F0
70
10
30
40
ENDCHAR
STARTCHAR less
ENCODING 60
SWIDTH 754 0
DWIDTH 11 0
BBX 10 9 0 2
BITMAP
0040
03C0
0E00
3800
C000
7800
0E00
03C0
0040
ENDCHAR
STARTCHAR equal
ENCODING 61
SWIDTH 754 0
DWIDTH 11 0
BBX 10 4 0 4
BITMAP
FFC0
0000
0000
FFC0
ENDCHAR
STARTCHAR greater
ENCODING 62
SWIDTH 754 0
DWIDTH 11 0
BBX 10 9 0 2
BITMAP
8000
F000
1C00
0780
00C0
0700
1C00
F000
8000
ENDCHAR
STARTCHAR question
ENCODING 63
SWIDTH 617 0
DWIDTH 9 0
BBX 7 13 1 0
BITMAP
38
5C
CE
CE
0E
1C
18
10
10
00
30
38
30
ENDCHAR
STARTCHAR at
ENCODING 64
SWIDTH 1234 0
DWIDTH 18 0
BBX 16 17 1 -4
BITMAP
03E0
0E10
100C
2004
61B2
4362
C662
8662
8CE2
8CC4
8DC4
4ED9
4462
4002
300C
0C30
03C0
ENDCHAR
STARTCHAR A
ENCODING 65
SWIDTH 960 0
DWIDTH 14 0
BBX 14 13 0 0
BITMAP
0100
0300
0380
0780
07C0
09C0
09C0
10E0
1FE0
2070
2070
6078
F0FC
ENDCHAR
STARTCHAR B
ENCODING 66
SWIDTH 891 0
DWIDTH 13 0
BBX 12 13 0 0
BITMAP
FFC0
39E0
38E0
38E0
38E0
3BC0
3FC0
38E0
3870
3870
38F0
39E0
FF80
ENDCHAR
STARTCHAR C
ENCODING 67
SWIDTH 960 0
DWIDTH 14 0
BBX 12 13 1 0
BITMAP
0F90
1870
7010
7010
6000
E000
E000
E000
E000
7000
7010
3C60
0780
ENDCHAR
STARTCHAR D
ENCODING 68
SWIDTH 960 0
DWIDTH 14 0
BBX 13 13 0 0
BITMAP
FF00
3BC0
3870
3870
3870
3838
3838
3838
3838
3830
3870
38E0
FF00
ENDCHAR
STARTCHAR E
ENCODING 69
SWIDTH 891 0
DWIDTH 13 0
BBX 12 13 0 0
BITMAP
FFC0
3840
3820
38A0
3900
3900
3F00
3900
3900
3890
3820
3860
FFE0
ENDCHAR
STARTCHAR F
ENCODING 70
SWIDTH 822 0
DWIDTH 12 0
BBX 11 13 0 0
BITMAP
FFC0
3840
3820
3820
3880
3900
3F00
3900
3880
3880
3800
3800
FE00
ENDCHAR
STARTCHAR G
ENCODING 71
SWIDTH 1028 0
DWIDTH 15 0
BBX 14 13 1 0
BITMAP
0790
3C70
7010
6010
E000
E000
E000
E0FC
E070
6070
7070
3870
07C0
ENDCHAR
STARTCHAR H
ENCODING 72
SWIDTH 1028 0
DWIDTH 15 0
BBX 15 13 0 0
BITMAP
FEFE
3838
3838
3838
3838
3838
3FF8
3838
3838
3838
3838
3838
FEFE
ENDCHAR
STARTCHAR I
ENCODING 73
SWIDTH 480 0
DWIDTH 7 0
BBX 7 13 0 0
BITMAP
FE
38
38
38
38
38
38
38
38
38
38
38
FE
ENDCHAR
STARTCHAR J
ENCODING 74
SWIDTH 617 0
DWIDTH 9 0
BBX 10 13 0 0
BITMAP
1FC0
0700
0700
0700
0700
0700
0700
0700
0700
E700
E700
6600
3C00
ENDCHAR
STARTCHAR K
ENCODING 75
SWIDTH 1028 0
DWIDTH 15 0
BBX 14 13 0 0
BITMAP
FC7C
3830
3820
38C0
3900
3B00
3F80
3B80
39C0
38E0
38F0
3878
FCFC
ENDCHAR
STARTCHAR L
ENCODING 76
SWIDTH 891 0
DWIDTH 13 0
BBX 12 13 0 0
BITMAP
FE00
3800
3800
3800
3800
3800
3800
3800
3810
3820
3820
3860
FFE0
ENDCHAR
STARTCHAR M
ENCODING 77
SWIDTH 1234 0
DWIDTH 18 0
BBX 17 13 1 0
BITMAP
F01F80
781E00
783E00
5C2E00
5C2E00
5C4E00
4E4E00
4E8E00
478E00
470E00
470E00
420E00
E23F80
ENDCHAR
STARTCHAR N
ENCODING 78
SWIDTH 960 0
DWIDTH 14 0
BBX 12 13 1 0
BITMAP
E0F0
7020
7820
5C20
4E20
4720
47A0
43E0
41E0
40E0
4060
4060
E020
ENDCHAR
STARTCHAR O
ENCODING 79
SWIDTH 1028 0
DWIDTH 15 0
BBX 13 13 1 0
BITMAP
0F80
38E0
7070
7030
E038
E038
E038
E038
E038
6030
7070
38E0
0F80
ENDCHAR
STARTCHAR P
ENCODING 80
SWIDTH 822 0
DWIDTH 12 0
BBX 11 13 0 0
BITMAP
FF80
39C0
38E0
38E0
38E0
39C0
3F80
3800
3800
3800
3800
3800
FE00
ENDCHAR
STARTCHAR Q
ENCODING 81
SWIDTH 1028 0
DWIDTH 15 0
BBX 13 16 1 -3
BITMAP
0F80
38E0
7070
7070
E038
E038
E038
E038
E038
6030
7070
3060
0F80
0780
03C0
00F0
ENDCHAR
STARTCHAR R
ENCODING 82
SWIDTH 960 0
DWIDTH 14 0
BBX 13 13 0 0
BITMAP
FFC0
38E0
3870
3870
3870
38E0
3FC0
3BC0
39E0
38E0
38F0
3878
FE38
ENDCHAR
STARTCHAR S
ENCODING 83
SWIDTH 754 0
DWIDTH 11 0
BBX 9 13 1 0
BITMAP
3C80
6300
C100
E080
F800
7E00
3F00
0F80
8380
8180
C180
E300
9E00
ENDCHAR
STARTCHAR T
ENCODING 84
SWIDTH 891 0
DWIDTH 13 0
BBX 12 13 1 0
BITMAP
FFE0
8E20
8E10
0E00
0E00
0E00
0E00
0E00
0E00
0E00
0E00
0E00
3F80
ENDCHAR
STARTCHAR U
ENCODING 85
SWIDTH 960 0
DWIDTH 14 0
BBX 12 13 1 0
BITMAP
FC70
7020
7020
7020
7020
7020
7020
7020
7020
7020
7020
3840
1F80
ENDCHAR
STARTCHAR V
ENCODING 86
SWIDTH 960 0
DWIDTH 14 0
BBX 14 13 0 0
BITMAP
FC3C
7818
3810
3810
1C10
1C20
1E20
0E40
0F80
0780
0700
0300
0200
ENDCHAR
STARTCHAR W
ENCODING 87
SWIDTH 1302 0
DWIDTH 19 0
BBX 19 13 0 0
BITMAP
F9F8E0
70F040
707040
387040
387880
1C7880
1C7D00
1E9D00
0E9F00
0F0E00
060C00
060C00
040400
ENDCHAR
STARTCHAR X
ENCODING 88
SWIDTH 960 0
DWIDTH 14 0
BBX 14 13 0 0
BITMAP
FCF8
7860
3C40
1C80
0E80
0F00
0780
0780
0BC0
11E0
30E0
60F0
F8FC
ENDCHAR
STARTCHAR Y
ENCODING 89
SWIDTH 960 0
DWIDTH 14 0
BBX 14 13 0 0
BITMAP
FC3C
7818
3830
3C20
1C40
0E40
0E80
0700
0700
0700
0700
0700
1FC0
ENDCHAR
STARTCHAR Z
ENCODING 90
SWIDTH 891 0
DWIDTH 13 0
BBX 13 13 0 0
BITMAP
7FE0
61C0
43C0
4380
0780
0700
0E00
1E00
1C08
3810
7810
7070
FFF0
ENDCHAR
STARTCHAR bracketleft
ENCODING 91
SWIDTH 411 0
DWIDTH 6 0
BBX 4 16 2 -3
BITMAP
F0
C0
C0
C0
C0
C0
C0
C0
C0
C0
C0
C0
C0
C0
C0
F0
ENDCHAR
STARTCHAR backslash
ENCODING 92
SWIDTH 342 0
DWIDTH 5 0
BBX 5 13 0 0
BITMAP
80
C0
40
40
40
20
20
20
10
10
10
18
08
ENDCHAR
STARTCHAR bracketright
ENCODING 93
SWIDTH 411 0
DWIDTH 6 0
BBX 3 16 1 -3
BITMAP
E0
60
60
60
60
60
60
60
60
60
60
60
60
60
60
E0
ENDCHAR
STARTCHAR asciicircum
ENCODING 94
SWIDTH 754 0
DWIDTH 11 0
BBX 8 7 1 6
BITMAP
18
18
3C
24
66
42
C3
ENDCHAR
STARTCHAR underscore
ENCODING 95
SWIDTH 617 0
DWIDTH 9 0
BBX 10 1 0 -4
BITMAP
FFC0
ENDCHAR
STARTCHAR grave
ENCODING 96
SWIDTH 411 0
DWIDTH 6 0
BBX 4 3 0 10
BITMAP
E0
20
10
ENDCHAR
STARTCHAR a
ENCODING 97
SWIDTH 617 0
DWIDTH 9 0
BBX 8 9 1 0
BITMAP
38
6E
EE
EE
1E
6E
EE
FE
EF
ENDCHAR
STARTCHAR b
ENCODING 98
SWIDTH 754 0
DWIDTH 11 0
BBX 10 13 0 0
BITMAP
F000
7000
7000
7000
7700
7B80
71C0
71C0
71C0
71C0
7180
7300
4E00
ENDCHAR
STARTCHAR c
ENCODING 99
SWIDTH 548 0
DWIDTH 8 0
BBX 7 9 1 0
BITMAP
3C
66
46
C2
C0
E0
E0
7A
3C
ENDCHAR
STARTCHAR d
ENCODING 100
SWIDTH 754 0
DWIDTH 11 0
BBX 9 13 1 0
BITMAP
0F00
0700
0700
0700
6F00
6700
E700
E700
E700
E700
6700
6F00
3780
ENDCHAR
STARTCHAR e
ENCODING 101
SWIDTH 548 0
DWIDTH 8 0
BBX 7 9 1 0
BITMAP
38
6C
4E
C6
FE
C0
E0
62
7C
ENDCHAR
STARTCHAR f
ENCODING 102
SWIDTH 411 0
DWIDTH 6 0
BBX 7 13 1 0
BITMAP
1C
36
72
70
F8
70
70
70
70
70
70
70
F8
ENDCHAR
STARTCHAR g
ENCODING 103
SWIDTH 617 0
DWIDTH 9 0
BBX 8 13 1 -4
BITMAP
3F
66
E6
E6
66
64
18
60
FE
7F
C3
C2
3C
ENDCHAR
STARTCHAR h
ENCODING 104
SWIDTH 754 0
DWIDTH 11 0
BBX 9 13 1 0
BITMAP
F000
7000
7000
7000
7E00
7700
7700
7700
7700
7700
7700
7700
F780
ENDCHAR
STARTCHAR i
ENCODING 105
SWIDTH 342 0
DWIDTH 5 0
BBX 5 13 0 0
BITMAP
70
70
70
00
F0
70
70
70
70
70
70
70
F8
ENDCHAR
STARTCHAR j
ENCODING 106
SWIDTH 411 0
DWIDTH 6 0
BBX 6 17 -1 -4
BITMAP
0C
1C
0C
00
3C
1C
1C
1C
1C
1C
1C
1C
1C
1C
CC
C8
70
ENDCHAR
STARTCHAR k
ENCODING 107
SWIDTH 754 0
DWIDTH 11 0
BBX 10 13 1 0
BITMAP
F000
7000
7000
7000
7780
7100
7200
7400
7E00
7700
7300
7380
F3C0
ENDCHAR
STARTCHAR l
ENCODING 108
SWIDTH 342 0
DWIDTH 5 0
BBX 5 13 0 0
BITMAP
F0
70
70
70
70
70
70
70
70
70
70
70
F8
ENDCHAR
STARTCHAR m
ENCODING 109
SWIDTH 1097 0
DWIDTH 16 0
BBX 14 9 1 0
BITMAP
FF70
73B8
73B8
73B8
73B8
73B8
73B8
73B8
F7BC
ENDCHAR
STARTCHAR n
ENCODING 110
SWIDTH 754 0
DWIDTH 11 0
BBX 9 9 1 0
BITMAP
F600
7F00
7700
7700
7700
7700
7700
7700
F780
ENDCHAR
STARTCHAR o
ENCODING 111
SWIDTH 617 0
DWIDTH 9 0
BBX 8 9 1 0
BITMAP
38
66
66
E7
E7
E7
66
66
3C
ENDCHAR
STARTCHAR p
ENCODING 112
SWIDTH 754 0
DWIDTH 11 0
BBX 10 13 0 -4
BITMAP
F700
7B80
71C0
71C0
71C0
71C0
71C0
7B80
7700
7000
7000
7000
F800
ENDCHAR
STARTCHAR q
ENCODING 113
SWIDTH 754 0
DWIDTH 11 0
BBX 9 13 1 -4
BITMAP
1900
2700
6700
E700
E700
E700
6700
6F00
3700
0700
0700
0700
0F80
ENDCHAR
STARTCHAR r
ENCODING 114
SWIDTH 548 0
DWIDTH 8 0
BBX 7 9 1 0
BITMAP
F6
7E
70
70
70
70
70
70
F8
ENDCHAR
STARTCHAR s
ENCODING 115
SWIDTH 480 0
DWIDTH 7 0
BBX 6 9 1 0
BITMAP
78
C8
C8
F0
78
38
9C
98
F0
ENDCHAR
STARTCHAR t
ENCODING 116
SWIDTH 411 0
DWIDTH 6 0
BBX 6 12 0 0
BITMAP
10
30
70
FC
70
70
70
70
70
70
74
38
ENDCHAR
STARTCHAR u
ENCODING 117
SWIDTH 754 0
DWIDTH 11 0
BBX 9 9 1 0
BITMAP
FF00
7700
7700
7700
7700
7700
7700
7F00
3780
ENDCHAR
STARTCHAR v
ENCODING 118
SWIDTH 617 0
DWIDTH 9 0
BBX 9 9 0 0
BITMAP
F380
6100
7100
3200
3A00
3C00
1C00
1800
0800
ENDCHAR
STARTCHAR w
ENCODING 119
SWIDTH 960 0
DWIDTH 14 0
BBX 14 9 0 0
BITMAP
F3DC
6188
71C8
39D0
3AD0
3CE0
1860
1860
1040
ENDCHAR
STARTCHAR x
ENCODING 120
SWIDTH 617 0
DWIDTH 9 0
BBX 9 9 0 0
BITMAP
FB80
7100
3A00
3C00
1E00
1E00
2F00
4700
EF80
ENDCHAR
STARTCHAR y
ENCODING 121
SWIDTH 617 0
DWIDTH 9 0
BBX 9 13 0 -4
BITMAP
F380
7100
3100
3100
1A00
1A00
1C00
1800
0800
0800
6800
7000
6000
ENDCHAR
STARTCHAR z
ENCODING 122
SWIDTH 548 0
DWIDTH 8 0
BBX 9 9 0 0
BITMAP
7F00
4600
0E00
1C00
1800
3880
7100
7300
FF00
ENDCHAR
STARTCHAR braceleft
ENCODING 123
SWIDTH 480 0
DWIDTH 7 0
BBX 5 17 2 -4
BITMAP
38
60
60
60
60
60
60
40
80
40
60
60
60
60
60
60
38
ENDCHAR
STARTCHAR bar
ENCODING 124
SWIDTH 274 0
DWIDTH 4 0
BBX 1 17 1 -4
BITMAP
80
80
80
80
80
80
80
80
80
80
80
80
80
80
80
80
80
ENDCHAR
STARTCHAR braceright
ENCODING 125
SWIDTH 480 0
DWIDTH 7 0
BBX 5 17 1 -4
BITMAP
C0
60
30
30
70
60
20
30
08
30
20
60
60
30
30
20
C0
ENDCHAR
STARTCHAR asciitilde
ENCODING 126
SWIDTH 685 0
DWIDTH 10 0
BBX 10 3 0 4
BITMAP
7840
9E40
8780
ENDCHAR
STARTCHAR C001122
ENCODING 133
SWIDTH 1302 0
DWIDTH 19 0
BBX 15 3 2 0
BITMAP
E38E
E38E
E38E
ENDCHAR
STARTCHAR C001107
ENCODING 145
SWIDTH 411 0
DWIDTH 6 0
BBX 4 6 1 7
BITMAP
30
40
80
F0
F0
60
ENDCHAR
STARTCHAR C001110
ENCODING 146
SWIDTH 411 0
DWIDTH 6 0
BBX 4 6 1 7
BITMAP
60
F0
F0
10
20
C0
ENDCHAR
STARTCHAR C001113
ENCODING 147
SWIDTH 617 0
DWIDTH 9 0
BBX 8 6 1 7
BITMAP
33
44
88
FF
FF
66
ENDCHAR
STARTCHAR C001114
ENCODING 148
SWIDTH 617 0
DWIDTH 9 0
BBX 8 6 1 7
BITMAP
E6
FF
FF
31
62
8C
ENDCHAR
STARTCHAR C001121
ENCODING 149
SWIDTH 480 0
DWIDTH 7 0
BBX 5 5 1 4
BITMAP
70
F8
F8
F8
70
ENDCHAR
STARTCHAR C001103
ENCODING 150
SWIDTH 617 0
DWIDTH 9 0
BBX 10 1 0 4
BITMAP
FFC0
ENDCHAR
STARTCHAR C001104
ENCODING 151
SWIDTH 1302 0
DWIDTH 19 0
BBX 19 1 0 4
BITMAP
FFFFE0
ENDCHAR
STARTCHAR exclamdown
ENCODING 161
SWIDTH 754 0
DWIDTH 11 0
BBX 9 12 1 0
BITMAP
3E00
4700
C380
F180
6180
6180
6180
6180
6180
6180
6180
6100
ENDCHAR
STARTCHAR cent
ENCODING 162
SWIDTH 822 0
DWIDTH 12 0
BBX 10 12 1 0
BITMAP
3840
4CC0
CCC0
ECC0
9CC0
6CC0
0CC0
0CC0
0CC0
0CC0
0CC0
0780
ENDCHAR
STARTCHAR sterling
ENCODING 163
SWIDTH 891 0
DWIDTH 13 0
BBX 11 12 1 0
BITMAP
2C20
6E60
D660
9660
9660
D660
7660
0660
0660
0660
0660
03C0
ENDCHAR
STARTCHAR currency
ENCODING 164
SWIDTH 822 0
DWIDTH 12 0
BBX 10 12 1 0
BITMAP
1E00
7F80
4380
B8C0
E4C0
E4C0
78C0
60C0
60C0
60C0
60C0
60C0
ENDCHAR
STARTCHAR yen
ENCODING 165
SWIDTH 822 0
DWIDTH 12 0
BBX 10 12 1 0
BITMAP
1300
7F80
4CC0
80C0
B8C0
A4C0
64C0
78C0
60C0
60C0
60C0
60C0
ENDCHAR
STARTCHAR brokenbar
ENCODING 166
SWIDTH 960 0
DWIDTH 14 0
BBX 12 12 1 0
BITMAP
2C10
7E30
7630
A630
8630
E630
6630
0630
1FB0
2670
2630
1C10
ENDCHAR
STARTCHAR section
ENCODING 167
SWIDTH 617 0
DWIDTH 9 0
BBX 7 12 1 0
BITMAP
0C
14
26
26
1E
06
86
46
26
1E
0E
06
ENDCHAR
STARTCHAR diaeresis
ENCODING 168
SWIDTH 754 0
DWIDTH 11 0
BBX 9 12 1 0
BITMAP
3E00
4700
0380
6180
9180
B180
7180
3180
3180
3180
3180
1F00
ENDCHAR
STARTCHAR copyright
ENCODING 169
SWIDTH 822 0
DWIDTH 12 0
BBX 10 12 1 0
BITMAP
1E00
6780
0380
60C0
90C0
90C0
70C0
30C0
3180
3EC0
3340
31C0
ENDCHAR
STARTCHAR ordfeminine
ENCODING 170
SWIDTH 822 0
DWIDTH 12 0
BBX 10 12 1 0
BITMAP
70C0
5180
9980
BF00
F900
5980
1980
1980
1980
1980
1900
1F00
ENDCHAR
STARTCHAR guillemotleft
ENCODING 171
SWIDTH 960 0
DWIDTH 14 0
BBX 12 12 1 0
BITMAP
2470
7E60
C6E0
E7C0
96C0
96E0
66E0
06E0
06E0
06E0
06C0
0FC0
ENDCHAR
STARTCHAR notsign
ENCODING 172
SWIDTH 1028 0
DWIDTH 15 0
BBX 13 12 1 0
BITMAP
3E08
6398
4198
F998
6198
6198
6198
6198
63F8
5DB8
5D98
3308
ENDCHAR
STARTCHAR hyphen
ENCODING 173
SWIDTH 1097 0
DWIDTH 16 0
BBX 14 17 1 -5
BITMAP
3E04
430C
C18C
F98C
618C
618C
618C
798C
658C
658C
64F8
38F0
0000
018C
01CC
0118
00F0
ENDCHAR
STARTCHAR registered
ENCODING 174
SWIDTH 891 0
DWIDTH 13 0
BBX 11 17 1 -5
BITMAP
1F00
31C0
6060
7C60
3060
3060
3060
7060
B060
9060
B060
6360
0460
1E60
27E0
18E0
0060
ENDCHAR
STARTCHAR macron
ENCODING 175
SWIDTH 891 0
DWIDTH 13 0
BBX 11 18 1 -6
BITMAP
0F80
11C0
2060
3E60
1860
1860
1860
1860
7860
9860
9860
7660
0860
3860
5860
5FE0
2660
0060
ENDCHAR
STARTCHAR degree
ENCODING 176
SWIDTH 754 0
DWIDTH 11 0
BBX 9 18 1 -6
BITMAP
3880
7F00
4E00
7C00
4600
6300
B300
B300
7300
3300
3F00
0E00
1600
7900
7900
B700
6B00
0F00
ENDCHAR
STARTCHAR plusminus
ENCODING 177
SWIDTH 1028 0
DWIDTH 15 0
BBX 13 12 1 0
BITMAP
6C70
7EB8
9698
8798
9718
D718
3718
0718
0618
0618
0618
0618
ENDCHAR
STARTCHAR twosuperior
ENCODING 178
SWIDTH 1097 0
DWIDTH 16 0
BBX 14 12 1 0
BITMAP
3304
7F8C
ECCC
C4CC
DCCC
D6CC
E4CC
6CCC
79FC
72DC
62CC
6184
ENDCHAR
STARTCHAR threesuperior
ENCODING 179
SWIDTH 1097 0
DWIDTH 16 0
BBX 14 12 1 0
BITMAP
3E0C
670C
438C
818C
F98C
618C
618C
618C
79B8
65F4
25B4
199C
ENDCHAR
STARTCHAR acute
ENCODING 180
SWIDTH 822 0
DWIDTH 12 0
BBX 10 12 1 0
BITMAP
1E00
6380
60C0
C0C0
D8C0
DCC0
CCC0
68C0
68C0
70C0
60C0
60C0
ENDCHAR
STARTCHAR mu
ENCODING 181
SWIDTH 822 0
DWIDTH 12 0
BBX 10 12 1 0
BITMAP
3700
7F80
69C0
C0C0
DCC0
DCC0
CCC0
68C0
70C0
60C0
60C0
60C0
ENDCHAR
STARTCHAR paragraph
ENCODING 182
SWIDTH 822 0
DWIDTH 12 0
BBX 9 12 1 0
BITMAP
3E00
4380
C180
F980
6180
6180
6180
6180
7980
6580
6580
3900
ENDCHAR
STARTCHAR periodcentered
ENCODING 183
SWIDTH 891 0
DWIDTH 13 0
BBX 11 12 1 0
BITMAP
61C0
92E0
9660
9460
7460
3C60
3860
3860
3860
3860
3060
3060
ENDCHAR
STARTCHAR cedilla
ENCODING 184
SWIDTH 754 0
DWIDTH 11 0
BBX 10 12 1 0
BITMAP
3840
6F80
B300
F000
3E00
3180
3180
3180
3180
3180
3180
FF00
ENDCHAR
STARTCHAR onesuperior
ENCODING 185
SWIDTH 891 0
DWIDTH 13 0
BBX 11 12 1 0
BITMAP
6020
B060
B060
B060
7060
3060
3060
3060
37C0
39A0
31A0
3040
ENDCHAR
STARTCHAR masculine
ENCODING 186
SWIDTH 891 0
DWIDTH 13 0
BBX 11 12 1 0
BITMAP
6060
9060
9060
7060
3060
3060
3060
3060
3060
3060
3060
7FC0
ENDCHAR
STARTCHAR guillemotright
ENCODING 187
SWIDTH 891 0
DWIDTH 13 0
BBX 11 19 1 0
BITMAP
0020
0060
0060
0060
0060
0060
0060
6060
9060
9060
7060
3060
3060
3060
3060
3060
3060
3060
3FC0
ENDCHAR
STARTCHAR onequarter
ENCODING 188
SWIDTH 822 0
DWIDTH 12 0
BBX 10 12 1 0
BITMAP
70C0
48C0
C8C0
F0C0
C4C0
CCC0
CEC0
D2C0
E1C0
E1C0
C0C0
C080
ENDCHAR
STARTCHAR onehalf
ENCODING 189
SWIDTH 822 0
DWIDTH 12 0
BBX 10 19 1 0
BITMAP
0040
00C0
00C0
00C0
00C0
00C0
00C0
70C0
48C0
C8C0
F0C0
C4C0
CCC0
CEC0
D2C0
E1C0
E1C0
C0C0
C080
ENDCHAR
STARTCHAR threequarters
ENCODING 190
SWIDTH 960 0
DWIDTH 14 0
BBX 12 12 1 0
BITMAP
6330
B330
9330
77B0
74B0
34B0
34B0
3870
3870
3870
3030
3030
ENDCHAR
STARTCHAR questiondown
ENCODING 191
SWIDTH 960 0
DWIDTH 14 0
BBX 12 19 1 0
BITMAP
0010
0030
0030
0030
0030
0030
0030
6330
9330
9330
74B0
34B0
34B0
3CF0
3870
3870
3870
3030
3030
ENDCHAR
STARTCHAR Agrave
ENCODING 192
SWIDTH 891 0
DWIDTH 13 0
BBX 10 12 1 0
BITMAP
1F00
3380
60C0
70C0
30C0
30C0
30C0
30C0
70C0
90C0
90C0
6080
ENDCHAR
STARTCHAR Aacute
ENCODING 193
SWIDTH 891 0
DWIDTH 13 0
BBX 10 12 1 0
BITMAP
6040
B0C0
B0C0
B0C0
70C0
30C0
30C0
30C0
78C0
B6C0
B3C0
60C0
ENDCHAR
STARTCHAR Acircumflex
ENCODING 194
SWIDTH 754 0
DWIDTH 11 0
BBX 9 12 1 0
BITMAP
7080
C980
C980
C980
F180
C180
6180
7180
C180
C180
C380
7F00
ENDCHAR
STARTCHAR Atilde
ENCODING 195
SWIDTH 685 0
DWIDTH 10 0
BBX 9 12 1 0
BITMAP
1980
7E00
6400
F000
1C00
0600
0600
0600
0E00
1600
1600
0C00
ENDCHAR
STARTCHAR Adiaeresis
ENCODING 196
SWIDTH 822 0
DWIDTH 12 0
BBX 9 18 1 -6
BITMAP
3C00
4300
C180
F180
6180
6180
6180
6180
7980
6580
6D80
3980
0180
0180
0180
0180
0180
0180
ENDCHAR
STARTCHAR Aring
ENCODING 197
SWIDTH 754 0
DWIDTH 11 0
BBX 9 12 1 0
BITMAP
3C00
4700
8380
1F80
7380
6180
6180
6180
7980
6580
6580
3980
ENDCHAR
STARTCHAR AE
ENCODING 198
SWIDTH 891 0
DWIDTH 13 0
BBX 11 18 1 -6
BITMAP
1F80
21C0
2060
3C60
3060
3060
3060
3060
F060
9060
9060
6060
0060
0060
0060
0060
0060
0060
ENDCHAR
STARTCHAR Ccedilla
ENCODING 199
SWIDTH 685 0
DWIDTH 10 0
BBX 8 12 1 0
BITMAP
3C
C7
83
03
03
03
03
03
0F
13
13
0E
ENDCHAR
STARTCHAR Egrave
ENCODING 200
SWIDTH 822 0
DWIDTH 12 0
BBX 10 12 1 0
BITMAP
3CC0
4380
8180
BB80
E780
6580
7980
6180
6180
6180
6180
6180
ENDCHAR
STARTCHAR Eacute
ENCODING 201
SWIDTH 891 0
DWIDTH 13 0
BBX 11 12 1 0
BITMAP
6020
9060
9060
7060
3060
3F60
38E0
3F60
3060
3060
3060
7FC0
ENDCHAR
STARTCHAR Ecircumflex
ENCODING 202
SWIDTH 822 0
DWIDTH 12 0
BBX 11 12 1 0
BITMAP
3E60
4740
83C0
1D80
3380
6180
6180
6180
7980
6580
6580
3980
ENDCHAR
STARTCHAR Ediaeresis
ENCODING 203
SWIDTH 891 0
DWIDTH 13 0
BBX 11 12 1 0
BITMAP
60C0
B1A0
9120
51E0
73C0
3640
3860
3860
3060
3060
3060
3060
ENDCHAR
STARTCHAR Igrave
ENCODING 204
SWIDTH 1165 0
DWIDTH 17 0
BBX 14 12 1 0
BITMAP
616C
B39C
9398
B370
77B0
34B0
34B0
3CF0
3870
3870
3870
3030
ENDCHAR
STARTCHAR Iacute
ENCODING 205
SWIDTH 754 0
DWIDTH 11 0
BBX 9 12 1 0
BITMAP
3C00
4700
8300
3180
6980
6980
7180
6180
6180
6180
2300
1E00
ENDCHAR
STARTCHAR Icircumflex
ENCODING 206
SWIDTH 754 0
DWIDTH 11 0
BBX 8 12 1 0
BITMAP
3F
C7
87
7F
03
73
CB
CB
F3
C3
E2
3C
ENDCHAR
STARTCHAR Idiaeresis
ENCODING 207
SWIDTH 891 0
DWIDTH 13 0
BBX 10 12 2 0
BITMAP
03C0
03C0
06C0
F4C0
84C0
88C0
70C0
00C0
00C0
00C0
00C0
00C0
ENDCHAR
STARTCHAR ETH
ENCODING 208
SWIDTH 685 0
DWIDTH 10 0
BBX 8 11 1 0
BITMAP
63
93
96
78
00
00
63
93
96
FC
38
ENDCHAR
STARTCHAR Ntilde
ENCODING 209
SWIDTH 0 0
DWIDTH 0 0
BBX 9 5 -8 13
BITMAP
6180
9180
9100
6300
3E00
ENDCHAR
STARTCHAR Ograve
ENCODING 210
SWIDTH 548 0
DWIDTH 8 0
BBX 6 12 1 0
BITMAP
70
98
0C
0C
0C
0C
0C
0C
0C
0C
0C
0C
ENDCHAR
STARTCHAR Oacute
ENCODING 211
SWIDTH 548 0
DWIDTH 8 0
BBX 14 18 -7 0
BITMAP
7000
8800
8800
8800
7000
0000
0070
0098
000C
000C
000C
000C
000C
000C
000C
000C
000C
000C
ENDCHAR
STARTCHAR Ocircumflex
ENCODING 212
SWIDTH 0 0
DWIDTH 0 0
BBX 10 5 -11 13
BITMAP
1E00
3F00
4180
FEC0
01C0
ENDCHAR
STARTCHAR Otilde
ENCODING 213
SWIDTH 0 0
DWIDTH 0 0
BBX 9 6 -11 13
BITMAP
0180
1D80
7F80
4380
FC80
0380
ENDCHAR
STARTCHAR Odiaeresis
ENCODING 214
SWIDTH 0 0
DWIDTH 0 0
BBX 10 7 -11 13
BITMAP
0180
0240
1E40
7FC0
4380
FE80
01C0
ENDCHAR
STARTCHAR multiply
ENCODING 215
SWIDTH 0 0
DWIDTH 0 0
BBX 10 7 -10 13
BITMAP
0D80
0D80
3F80
6380
C180
FE80
01C0
ENDCHAR
STARTCHAR Ooblique
ENCODING 216
SWIDTH 0 0
DWIDTH 0 0
BBX 5 5 -6 -6
BITMAP
70
98
78
18
18
ENDCHAR
STARTCHAR Ugrave
ENCODING 217
SWIDTH 0 0
DWIDTH 0 0
BBX 7 5 -8 -6
BITMAP
46
A6
66
26
3E
ENDCHAR
STARTCHAR Uacute
ENCODING 218
SWIDTH 0 0
DWIDTH 0 0
BBX 3 4 -4 -5
BITMAP
40
E0
E0
40
ENDCHAR
STARTCHAR Ucircumflex
ENCODING 219
SWIDTH 411 0
DWIDTH 6 0
BBX 0 0 0 0
BITMAP
ENDCHAR
STARTCHAR Udiaeresis
ENCODING 220
SWIDTH 411 0
DWIDTH 6 0
BBX 6 3 0 -3
BITMAP
FC
FC
84
ENDCHAR
STARTCHAR ssharp
ENCODING 223
SWIDTH 891 0
DWIDTH 13 0
BBX 11 16 1 -1
BITMAP
0C00
0C00
FF00
7F80
6DC0
6DC0
6D80
7F00
7F80
6CE0
6CE0
6CE0
6DC0
7F80
FF00
0C00
ENDCHAR
STARTCHAR agrave
ENCODING 224
SWIDTH 342 0
DWIDTH 5 0
BBX 4 12 1 0
BITMAP
40
C0
C0
C0
C0
C0
C0
C0
E0
90
90
60
ENDCHAR
STARTCHAR aacute
ENCODING 225
SWIDTH 685 0
DWIDTH 10 0
BBX 9 12 1 0
BITMAP
4200
C600
C600
C600
C600
C600
C600
C600
E700
9480
9480
6300
ENDCHAR
STARTCHAR acircumflex
ENCODING 226
SWIDTH 480 0
DWIDTH 7 0
BBX 8 20 -1 0
BITMAP
39
7F
C6
70
18
0C
0C
0C
0C
0C
0C
0C
0C
0C
0C
0C
0E
09
09
06
ENDCHAR
STARTCHAR atilde
ENCODING 227
SWIDTH 480 0
DWIDTH 7 0
BBX 7 20 -1 0
BITMAP
78
9C
BC
AC
6C
4C
0C
0C
0C
0C
0C
0C
0C
0C
0C
0C
0C
12
12
0C
ENDCHAR
STARTCHAR adiaeresis
ENCODING 228
SWIDTH 548 0
DWIDTH 8 0
BBX 9 20 -1 0
BITMAP
CE00
7300
7300
7300
7300
7300
7300
2300
0300
0300
0300
0300
0300
0300
0300
0300
0300
0480
0480
0300
ENDCHAR
STARTCHAR aring
ENCODING 229
SWIDTH 617 0
DWIDTH 9 0
BBX 6 18 1 -6
BITMAP
70
98
0C
0C
0C
0C
0C
0C
0C
0C
0C
0C
0C
0C
0C
0C
0C
0C
ENDCHAR
STARTCHAR ae
ENCODING 230
SWIDTH 685 0
DWIDTH 10 0
BBX 8 18 1 -6
BITMAP
26
6E
DB
83
83
93
73
03
03
03
03
03
03
03
03
03
03
03
ENDCHAR
STARTCHAR ccedilla
ENCODING 231
SWIDTH 0 0
DWIDTH 0 0
BBX 8 6 -8 13
BITMAP
07
7E
FC
FE
FE
6E
ENDCHAR
STARTCHAR egrave
ENCODING 232
SWIDTH 0 0
DWIDTH 0 0
BBX 2 4 -4 22
BITMAP
C0
C0
C0
C0
ENDCHAR
STARTCHAR eacute
ENCODING 233
SWIDTH 0 0
DWIDTH 0 0
BBX 7 5 -7 21
BITMAP
66
B6
F4
78
60
ENDCHAR
STARTCHAR ecircumflex
ENCODING 234
SWIDTH 0 0
DWIDTH 0 0
BBX 9 6 -7 23
BITMAP
0180
4980
7D00
9500
B600
7400
ENDCHAR
STARTCHAR ediaeresis
ENCODING 235
SWIDTH 0 0
DWIDTH 0 0
BBX 4 4 -5 23
BITMAP
60
F0
F0
60
ENDCHAR
STARTCHAR igrave
ENCODING 236
SWIDTH 0 0
DWIDTH 0 0
BBX 4 6 -4 21
BITMAP
30
30
E0
C0
E0
60
ENDCHAR
STARTCHAR iacute
ENCODING 237
SWIDTH 0 0
DWIDTH 0 0
BBX 4 5 -6 13
BITMAP
60
90
90
90
60
ENDCHAR
STARTCHAR icircumflex
ENCODING 238
SWIDTH 0 0
DWIDTH 0 0
BBX 6 6 -5 14
BITMAP
1C
20
30
40
C0
60
ENDCHAR
STARTCHAR idiaeresis
ENCODING 239
SWIDTH 685 0
DWIDTH 10 0
BBX 9 9 1 1
BITMAP
1C00
6300
9C80
BE80
BE80
BE80
9C80
6300
1C00
ENDCHAR
STARTCHAR eth
ENCODING 240
SWIDTH 754 0
DWIDTH 11 0
BBX 9 8 1 0
BITMAP
1C00
7700
E380
C180
C180
E380
7700
1C00
ENDCHAR
STARTCHAR ntilde
ENCODING 241
SWIDTH 685 0
DWIDTH 10 0
BBX 8 8 1 0
BITMAP
3C
7E
E3
DD
DD
65
3A
04
ENDCHAR
STARTCHAR ograve
ENCODING 242
SWIDTH 1028 0
DWIDTH 15 0
BBX 13 13 1 0
BITMAP
8000
C000
C000
C000
C000
C730
C7F0
CCD8
CB58
CB58
C758
E030
7FF0
ENDCHAR
STARTCHAR oacute
ENCODING 243
SWIDTH 960 0
DWIDTH 14 0
BBX 12 8 1 0
BITMAP
3CC0
7FE0
4370
8130
B930
B920
7A60
7240
ENDCHAR
STARTCHAR ocircumflex
ENCODING 244
SWIDTH 960 0
DWIDTH 14 0
BBX 12 13 1 0
BITMAP
0030
0030
0020
00C0
0700
3800
6380
C7C0
C7C0
C300
6180
7FF0
3830
ENDCHAR
STARTCHAR otilde
ENCODING 245
SWIDTH 1028 0
DWIDTH 15 0
BBX 13 13 1 0
BITMAP
0018
0718
0918
0970
07C0
0E00
39C0
63E0
C3E0
C340
C100
63C0
3C70
ENDCHAR
STARTCHAR odiaeresis
ENCODING 246
SWIDTH 685 0
DWIDTH 10 0
BBX 9 13 0 0
BITMAP
8000
C000
6000
2000
2000
3C00
6300
0180
3180
7180
7180
3300
1E00
ENDCHAR
STARTCHAR division
ENCODING 247
SWIDTH 1028 0
DWIDTH 15 0
BBX 13 13 1 0
BITMAP
0180
00C0
00E0
0070
0030
3318
7FD8
E5D8
C4D8
C0D0
DCF0
7CE0
39C0
ENDCHAR
STARTCHAR oslash
ENCODING 248
SWIDTH 1028 0
DWIDTH 15 0
BBX 12 13 1 0
BITMAP
0030
0030
0030
0030
0020
3C60
7FC0
E180
C000
D8C0
FCC0
76C0
3380
ENDCHAR
STARTCHAR ugrave
ENCODING 249
SWIDTH 754 0
DWIDTH 11 0
BBX 9 13 1 0
BITMAP
0080
0080
3F80
7F00
6000
3F00
3F00
6000
C600
C700
C700
6300
3C00
ENDCHAR
STARTCHAR uacute
ENCODING 250
SWIDTH 960 0
DWIDTH 14 0
BBX 12 12 1 0
BITMAP
03B0
07B0
05B0
6DB0
89B0
99B0
71B0
01B0
01B0
01B0
01B0
01B0
ENDCHAR
STARTCHAR ucircumflex
ENCODING 251
SWIDTH 1645 0
DWIDTH 24 0
BBX 22 11 1 0
BITMAP
3E0000
630000
C00000
800000
800000
804884
80CD84
C0B748
C19230
630000
3C0000
ENDCHAR
STARTCHAR udiaeresis
ENCODING 252
SWIDTH 0 0
DWIDTH 0 0
BBX 5 6 -6 -13
BITMAP
70
98
98
78
18
18
ENDCHAR
STARTCHAR yacute
ENCODING 253
SWIDTH 0 0
DWIDTH 0 0
BBX 7 6 -8 -12
BITMAP
66
96
96
76
36
3E
ENDCHAR
STARTCHAR thorn
ENCODING 254
SWIDTH 0 0
DWIDTH 0 0
BBX 3 4 -5 -11
BITMAP
40
E0
E0
40
ENDCHAR
ENDFONT
